<?xml version="1.0" standalone="no"?>
<!DOCTYPE svg PUBLIC "-//W3C//DTD SVG 20010904//EN"
 "http://www.w3.org/TR/2001/REC-SVG-20010904/DTD/svg10.dtd">
<svg version="1.0" xmlns="http://www.w3.org/2000/svg"
 width="600.000000pt" height="600.000000pt" viewBox="0 0 600.000000 600.000000"
 preserveAspectRatio="xMidYMid meet">

<g transform="translate(0.000000,600.000000) scale(0.100000,-0.100000)"
fill="#A641B9" stroke="none">
<path d="M850 5980 c-265 -16 -448 -88 -596 -236 -70 -68 -90 -96 -133 -185
-58 -119 -86 -226 -101 -384 -13 -147 -13 -2155 0 -2375 39 -622 247 -1168
630 -1650 107 -135 365 -394 500 -500 478 -379 987 -577 1613 -629 542 -45
1133 69 1587 307 806 422 1395 1180 1569 2018 113 547 81 1135 -89 1628 -114
330 -264 602 -487 882 -112 141 -359 388 -493 494 -350 278 -736 465 -1152
561 -184 43 -316 59 -558 69 -251 11 -2106 10 -2290 0z m3630 -1583 l0 -203
-86 -11 c-102 -14 -151 -36 -181 -82 -32 -48 -43 -94 -43 -188 l0 -83 165 0
165 0 0 -205 0 -205 -165 0 -165 0 0 -760 0 -760 -250 0 -250 0 0 760 0 760
-110 0 -110 0 0 205 0 205 109 0 108 0 6 133 c3 73 12 159 21 192 79 291 311
438 699 444 l87 1 0 -203z m-2660 -382 c0 -297 3 -455 10 -455 6 0 10 4 10 8
0 13 89 100 144 142 137 102 268 142 471 143 206 1 335 -37 489 -143 205 -142
337 -361 382 -640 22 -129 14 -371 -15 -489 -50 -198 -126 -336 -261 -471
-106 -106 -193 -161 -325 -206 -71 -25 -98 -28 -235 -32 -164 -4 -227 5 -343
48 -81 30 -194 108 -265 181 l-62 63 0 -132 0 -132 -245 0 -245 0 0 1285 0
1285 245 0 245 0 0 -455z"/>
<path d="M2178 3401 c-116 -37 -231 -137 -288 -251 -85 -169 -86 -406 -2 -580
84 -171 303 -296 484 -276 125 15 226 65 312 156 133 142 186 351 141 562 -41
197 -189 357 -366 397 -71 17 -217 12 -281 -8z"/>
</g>
</svg>
